<svg width="42" height="42" viewBox="0 0 42 42" fill="none" xmlns="http://www.w3.org/2000/svg">
<rect x="0.5" y="0.5" width="41" height="41" rx="7.5" stroke="#E8E8E8"/>
<path d="M21.6996 20.6977V9.67458C21.6996 9.29981 21.3998 9 21.025 9C20.6503 9 20.3505 9.29981 20.3505 9.67458V20.6977C18.7864 21.0125 17.6022 22.3966 17.6022 24.0556C17.6022 25.7146 18.7864 27.0987 20.3505 27.4135V32.3204C20.3505 32.6952 20.6503 32.995 21.025 32.995C21.3998 32.995 21.6996 32.6952 21.6996 32.3204V27.4135C23.2636 27.0987 24.4479 25.7146 24.4479 24.0556C24.4479 22.4016 23.2686 21.0125 21.6996 20.6977ZM21.025 26.1293C19.8807 26.1293 18.9513 25.1999 18.9513 24.0556C18.9513 22.9113 19.8807 21.9819 21.025 21.9819C22.1693 21.9819 23.0987 22.9113 23.0987 24.0556C23.0987 25.1999 22.1693 26.1293 21.025 26.1293Z" fill="#12224F"/>
<path d="M13.4397 15.0412V9.67458C13.4397 9.29981 13.1399 9 12.7651 9C12.3904 9 12.0906 9.29981 12.0906 9.67458V15.0412C10.5265 15.356 9.34229 16.7402 9.34229 18.3991C9.34229 20.0581 10.5265 21.4422 12.0906 21.757V32.3204C12.0906 32.6952 12.3904 32.995 12.7651 32.995C13.1399 32.995 13.4397 32.6952 13.4397 32.3204V21.752C15.0037 21.4372 16.188 20.0531 16.188 18.3941C16.188 16.7352 15.0037 15.356 13.4397 15.0412ZM12.7651 20.4728C11.6209 20.4728 10.6914 19.5434 10.6914 18.3991C10.6914 17.2548 11.6209 16.3254 12.7651 16.3254C13.9094 16.3254 14.8389 17.2548 14.8389 18.3991C14.8389 19.5434 13.9044 20.4728 12.7651 20.4728Z" fill="#12224F"/>
<path d="M29.9095 15.0412V9.67458C29.9095 9.29981 29.6096 9 29.2349 9C28.8601 9 28.5603 9.29981 28.5603 9.67458V15.0412C26.9963 15.356 25.812 16.7402 25.812 18.3991C25.812 20.0581 26.9963 21.4422 28.5603 21.757V32.3254C28.5603 32.7002 28.8601 33 29.2349 33C29.6096 33 29.9095 32.7002 29.9095 32.3254V21.752C31.4735 21.4372 32.6577 20.0531 32.6577 18.3941C32.6577 16.7352 31.4785 15.356 29.9095 15.0412ZM29.2349 20.4728C28.0906 20.4728 27.1612 19.5434 27.1612 18.3991C27.1612 17.2548 28.0906 16.3254 29.2349 16.3254C30.3792 16.3254 31.3086 17.2548 31.3086 18.3991C31.3086 19.5434 30.3792 20.4728 29.2349 20.4728Z" fill="#12224F"/>
</svg>
